# xmcd
#
# Track frame offsets:
# 150
# 13705
# 27117
# 41142
# 53285
# 71890
# 87712
# 102680
# 117562
# 129020
# 144535
# 159710
#
# Disc length: 2391 seconds
#
#
# Revision: 2
# Processed by: cddbd v1.5.1PL2 Copyright (c) Steve Scherf et al.
# Submitted via: FreeRIP 2.944 
#
DISCID=a809550c
DTITLE=Gene Watson - From The Heart
DYEAR=2001
DGENRE=Country
TTITLE0=Next To Nothin'
TTITLE1=She Had Me
TTITLE2=The Man An' Me And You
TTITLE3=Rose In The Sand
TTITLE4=When You're Not Looking Back
TTITLE5=This Circus That You Call A Rodeo
TTITLE6=The Truth Is I Lied
TTITLE7=Would It Be Cheatin'
TTITLE8=Drivin' Me Sane
TTITLE9=Take Me As I Am Or Let Me Go
TTITLE10=No Trash In My Trailer
TTITLE11=I Never Go Around Mirrors
EXTD=Row Music Group
EXTT0=
EXTT1=
EXTT2=
EXTT3=
EXTT4=
EXTT5=
EXTT6=
EXTT7=
EXTT8=
EXTT9=
EXTT10=
EXTT11=
PLAYORDER=
